<svg width="18" height="18" viewBox="0 0 18 18" fill="none" xmlns="http://www.w3.org/2000/svg">
<path fill-rule="evenodd" clip-rule="evenodd" d="M5.30335 0.629262C6.3063 0.213823 7.38127 0 8.46686 0C9.55246 0 10.6274 0.213823 11.6304 0.629262C12.6333 1.0447 13.5446 1.65362 14.3123 2.42125C15.0799 3.18888 15.6888 4.10019 16.1043 5.10315C16.5197 6.10611 16.7335 7.18107 16.7335 8.26667C16.7335 9.35226 16.5197 10.4272 16.1043 11.4302C15.7912 12.1859 15.3684 12.8896 14.8505 13.519L17.5659 16.2343C17.8783 16.5467 17.8783 17.0533 17.5659 17.3657C17.2535 17.6781 16.7469 17.6781 16.4345 17.3657L13.7192 14.6503C13.0898 15.1682 12.3861 15.591 11.6304 15.9041C10.6274 16.3195 9.55246 16.5333 8.46686 16.5333C7.38127 16.5333 6.3063 16.3195 5.30335 15.9041C4.30039 15.4886 3.38908 14.8797 2.62145 14.1121C1.85382 13.3445 1.2449 12.4331 0.829458 11.4302C0.414019 10.4272 0.200195 9.35226 0.200195 8.26667C0.200195 7.18107 0.414019 6.10611 0.829458 5.10315C1.2449 4.10019 1.85381 3.18888 2.62145 2.42125C3.38908 1.65362 4.30039 1.0447 5.30335 0.629262ZM8.46686 1.6C7.59138 1.6 6.72448 1.77244 5.91564 2.10747C5.1068 2.4425 4.37187 2.93356 3.75282 3.55262C3.13376 4.17168 2.6427 4.90661 2.30767 5.71544C1.97263 6.52428 1.8002 7.39119 1.8002 8.26667C1.8002 9.14215 1.97263 10.0091 2.30767 10.8179C2.6427 11.6267 3.13376 12.3617 3.75282 12.9807C4.37187 13.5998 5.1068 14.0908 5.91564 14.4259C6.72448 14.7609 7.59138 14.9333 8.46686 14.9333C9.34234 14.9333 10.2092 14.7609 11.0181 14.4259C11.8269 14.0908 12.5618 13.5998 13.1809 12.9807C13.8 12.3617 14.291 11.6267 14.6261 10.8179C14.9611 10.0091 15.1335 9.14215 15.1335 8.26667C15.1335 7.39119 14.9611 6.52428 14.6261 5.71544C14.291 4.90661 13.8 4.17168 13.1809 3.55262C12.5619 2.93356 11.8269 2.4425 11.0181 2.10747C10.2092 1.77244 9.34234 1.6 8.46686 1.6Z" fill="white"/>
</svg>
