<svg width="84" height="35" viewBox="0 0 84 35" fill="none" xmlns="http://www.w3.org/2000/svg">
<path d="M3.18184 17.2429L0.00929272 0.257658C-0.000770003 0.226003 -0.00269658 0.192324 0.00368984 0.159728C0.0100763 0.127132 0.0245699 0.0966711 0.0458341 0.0711541C0.0670983 0.045637 0.0944477 0.025887 0.125358 0.0137273C0.156268 0.00156759 0.189742 -0.00261013 0.222693 0.00157938H5.28454C5.34677 -0.00322707 5.40842 0.0163523 5.45648 0.0561754C5.50453 0.0959985 5.53521 0.152945 5.54204 0.214979L7.21368 11.666H8.06728L9.74034 0.214979C9.74682 0.152798 9.77741 0.0956337 9.82555 0.0557413C9.87368 0.0158489 9.93553 -0.00359549 9.99784 0.00157938H15.0583C15.0912 -0.00249154 15.1247 0.00175076 15.1556 0.0139183C15.1865 0.0260858 15.2139 0.0457929 15.2353 0.0712453C15.2566 0.0966976 15.2713 0.127086 15.2779 0.159645C15.2845 0.192204 15.2828 0.225896 15.2731 0.257658L12.4847 17.2429L15.2731 34.0972C15.2831 34.1291 15.285 34.1629 15.2785 34.1957C15.2721 34.2284 15.2575 34.2591 15.2361 34.2847C15.2147 34.3103 15.1872 34.3302 15.1561 34.3424C15.125 34.3547 15.0914 34.3589 15.0583 34.3547H10.0021C9.93958 34.3599 9.87753 34.3402 9.82936 34.3C9.78118 34.2599 9.75074 34.2023 9.7446 34.1399L8.07155 22.6889H7.21795L5.54631 34.1399C5.53982 34.2022 5.50929 34.2595 5.4612 34.2996C5.41311 34.3397 5.35126 34.3595 5.28881 34.3547H0.229807C0.196786 34.3586 0.163313 34.3542 0.132441 34.3418C0.101569 34.3295 0.0742809 34.3096 0.053064 34.284C0.0318471 34.2584 0.017377 34.2279 0.010974 34.1953C0.00457099 34.1627 0.00643881 34.1289 0.0164065 34.0972L3.18184 17.2429Z" fill="#49D0FF"/>
<mask id="path-2-inside-1_5642_500" fill="white">
<path d="M16.6703 0.214805C16.6686 0.186348 16.673 0.157865 16.6831 0.131224C16.6933 0.104584 16.7089 0.08039 16.7291 0.0602342C16.7492 0.0400784 16.7734 0.0244173 16.8001 0.014278C16.8267 0.00413864 16.8552 -0.000248914 16.8837 0.001405H22.0309C22.0594 -0.000229561 22.0879 0.00415987 22.1146 0.0142866C22.1413 0.0244134 22.1656 0.0400515 22.1859 0.0601821C22.2062 0.0803127 22.222 0.104484 22.2323 0.131124C22.2426 0.157765 22.2471 0.186278 22.2457 0.214805L23.5745 19.3013H24.4281L25.552 0.214805C25.552 0.044085 25.6373 0.001405 25.7668 0.001405H29.6265C29.7545 0.001405 29.8413 0.044085 29.8413 0.214805L30.9581 19.3013H31.8117L33.1419 0.214805C33.1402 0.186221 33.1446 0.157609 33.1549 0.130864C33.1651 0.104119 33.1809 0.079853 33.2012 0.0596741C33.2215 0.0394952 33.2459 0.0238632 33.2727 0.0138177C33.2995 0.00377224 33.3281 -0.000458706 33.3567 0.001405H38.4982C38.5268 -0.000458706 38.5555 0.00377224 38.5823 0.0138177C38.6091 0.0238632 38.6335 0.0394952 38.6538 0.0596741C38.6741 0.079853 38.6899 0.104119 38.7001 0.130864C38.7103 0.157609 38.7147 0.186221 38.7131 0.214805L36.3557 34.097C36.3576 34.1257 36.3533 34.1545 36.3432 34.1814C36.3331 34.2084 36.3173 34.2328 36.297 34.2531C36.2766 34.2735 36.2522 34.2892 36.2253 34.2994C36.1984 34.3095 36.1696 34.3137 36.1409 34.3119H29.1499C29.0219 34.3119 28.9365 34.2692 28.9365 34.097L28.1213 20.5817H27.2677L26.4525 34.097C26.4525 34.2692 26.3672 34.3119 26.2377 34.3119H19.2424C19.2139 34.3135 19.1852 34.3091 19.1585 34.2989C19.1318 34.2887 19.1075 34.2729 19.0873 34.2526C19.0671 34.2323 19.0515 34.2079 19.0415 34.1811C19.0314 34.1543 19.0272 34.1256 19.029 34.097L16.6703 0.214805Z"/>
</mask>
<path d="M16.6703 0.214805C16.6686 0.186348 16.673 0.157865 16.6831 0.131224C16.6933 0.104584 16.7089 0.08039 16.7291 0.0602342C16.7492 0.0400784 16.7734 0.0244173 16.8001 0.014278C16.8267 0.00413864 16.8552 -0.000248914 16.8837 0.001405H22.0309C22.0594 -0.000229561 22.0879 0.00415987 22.1146 0.0142866C22.1413 0.0244134 22.1656 0.0400515 22.1859 0.0601821C22.2062 0.0803127 22.222 0.104484 22.2323 0.131124C22.2426 0.157765 22.2471 0.186278 22.2457 0.214805L23.5745 19.3013H24.4281L25.552 0.214805C25.552 0.044085 25.6373 0.001405 25.7668 0.001405H29.6265C29.7545 0.001405 29.8413 0.044085 29.8413 0.214805L30.9581 19.3013H31.8117L33.1419 0.214805C33.1402 0.186221 33.1446 0.157609 33.1549 0.130864C33.1651 0.104119 33.1809 0.079853 33.2012 0.0596741C33.2215 0.0394952 33.2459 0.0238632 33.2727 0.0138177C33.2995 0.00377224 33.3281 -0.000458706 33.3567 0.001405H38.4982C38.5268 -0.000458706 38.5555 0.00377224 38.5823 0.0138177C38.6091 0.0238632 38.6335 0.0394952 38.6538 0.0596741C38.6741 0.079853 38.6899 0.104119 38.7001 0.130864C38.7103 0.157609 38.7147 0.186221 38.7131 0.214805L36.3557 34.097C36.3576 34.1257 36.3533 34.1545 36.3432 34.1814C36.3331 34.2084 36.3173 34.2328 36.297 34.2531C36.2766 34.2735 36.2522 34.2892 36.2253 34.2994C36.1984 34.3095 36.1696 34.3137 36.1409 34.3119H29.1499C29.0219 34.3119 28.9365 34.2692 28.9365 34.097L28.1213 20.5817H27.2677L26.4525 34.097C26.4525 34.2692 26.3672 34.3119 26.2377 34.3119H19.2424C19.2139 34.3135 19.1852 34.3091 19.1585 34.2989C19.1318 34.2887 19.1075 34.2729 19.0873 34.2526C19.0671 34.2323 19.0515 34.2079 19.0415 34.1811C19.0314 34.1543 19.0272 34.1256 19.029 34.097L16.6703 0.214805Z" fill="white"/>
<path d="M16.6703 0.214805L15.6719 0.272832L15.6727 0.284254L16.6703 0.214805ZM16.8837 0.001405L16.8256 0.99972L16.8546 1.00141H16.8837V0.001405ZM22.0309 0.001405V1.00141H22.0595L22.0881 0.999766L22.0309 0.001405ZM22.2457 0.214805L21.247 0.164215L21.2439 0.224269L21.2481 0.284255L22.2457 0.214805ZM23.5745 19.3013L22.5769 19.3708L22.6417 20.3013H23.5745V19.3013ZM24.4281 19.3013V20.3013H25.3709L25.4263 19.3601L24.4281 19.3013ZM25.552 0.214805L26.5502 0.273588L26.552 0.244222V0.214805H25.552ZM29.8413 0.214805H28.8413V0.244036L28.843 0.273217L29.8413 0.214805ZM30.9581 19.3013L29.9598 19.3597L30.0149 20.3013H30.9581V19.3013ZM31.8117 19.3013V20.3013H32.7444L32.8093 19.3708L31.8117 19.3013ZM33.1419 0.214805L34.1395 0.284329L34.1439 0.220361L34.1402 0.156346L33.1419 0.214805ZM33.3567 0.001405L33.2916 0.999284L33.3241 1.00141H33.3567V0.001405ZM38.4982 0.001405V1.00141H38.5308L38.5633 0.999284L38.4982 0.001405ZM38.7131 0.214805L39.7107 0.284217L39.7114 0.273264L38.7131 0.214805ZM36.3557 34.097L35.3581 34.0276L35.3534 34.0951L35.3579 34.1626L36.3557 34.097ZM36.1409 34.3119L36.2064 33.314L36.1737 33.3119H36.1409V34.3119ZM28.9365 34.097H29.9365V34.0669L29.9347 34.0368L28.9365 34.097ZM28.1213 20.5817L29.1195 20.5215L29.0628 19.5817H28.1213V20.5817ZM27.2677 20.5817V19.5817H26.3262L26.2695 20.5215L27.2677 20.5817ZM26.4525 34.097L25.4543 34.0368L25.4525 34.0669V34.097H26.4525ZM19.2424 34.3119V33.3119H19.2132L19.184 33.3136L19.2424 34.3119ZM19.029 34.097L20.0269 34.1621L20.0313 34.0948L20.0266 34.0276L19.029 34.097ZM17.6686 0.156782C17.6751 0.269154 17.6578 0.381671 17.6177 0.486932L15.7485 -0.224484C15.6882 -0.065942 15.6621 0.103543 15.6719 0.272828L17.6686 0.156782ZM17.6177 0.486932C17.5777 0.592171 17.5158 0.687731 17.4362 0.767341L16.022 -0.646873C15.9021 -0.526951 15.8089 -0.383003 15.7485 -0.224484L17.6177 0.486932ZM17.4362 0.767341C17.3566 0.846961 17.261 0.908827 17.1558 0.948875L16.4444 -0.920319C16.2859 -0.859992 16.1419 -0.766805 16.022 -0.646873L17.4362 0.767341ZM17.1558 0.948875C17.0506 0.988922 16.9381 1.00625 16.8256 0.99972L16.9417 -0.99691C16.7724 -1.00675 16.6029 -0.980645 16.4444 -0.920319L17.1558 0.948875ZM16.8837 1.00141H22.0309V-0.998595H16.8837V1.00141ZM22.0881 0.999766C21.9764 1.00617 21.8647 0.988978 21.7601 0.949332L22.4692 -0.920758C22.3112 -0.980658 22.1423 -1.00663 21.9736 -0.996956L22.0881 0.999766ZM21.7601 0.949332C21.6555 0.909679 21.5605 0.84845 21.4811 0.769634L22.8906 -0.64927C22.7708 -0.768347 22.6272 -0.860853 22.4692 -0.920758L21.7601 0.949332ZM21.4811 0.769634C21.4018 0.690815 21.3399 0.596169 21.2996 0.491858L23.1649 -0.229609C23.104 -0.387202 23.0105 -0.53019 22.8906 -0.64927L21.4811 0.769634ZM21.2996 0.491858C21.2592 0.387545 21.2413 0.275909 21.247 0.164215L23.2444 0.265395C23.253 0.0966466 23.2259 -0.0720146 23.1649 -0.229609L21.2996 0.491858ZM21.2481 0.284255L22.5769 19.3708L24.5721 19.2319L23.2433 0.145355L21.2481 0.284255ZM23.5745 20.3013H24.4281V18.3013H23.5745V20.3013ZM25.4263 19.3601L26.5502 0.273588L24.5537 0.156022L23.4298 19.2425L25.4263 19.3601ZM26.552 0.214805C26.552 0.279902 26.5343 0.570718 26.2598 0.80487C26.02 1.00946 25.7717 1.00141 25.7668 1.00141V-0.998595C25.6325 -0.998595 25.2767 -0.985314 24.9618 -0.7167C24.6123 -0.418528 24.552 -0.0210117 24.552 0.214805H26.552ZM25.7668 1.00141H29.6265V-0.998595H25.7668V1.00141ZM29.6265 1.00141C29.6185 1.00141 29.3728 1.00856 29.1347 0.806373C28.8612 0.574153 28.8413 0.284748 28.8413 0.214805H30.8413C30.8413 -0.0258578 30.7781 -0.421963 30.4292 -0.718203C30.1156 -0.984409 29.7625 -0.998595 29.6265 -0.998595V1.00141ZM28.843 0.273217L29.9598 19.3597L31.9564 19.2429L30.8396 0.156393L28.843 0.273217ZM30.9581 20.3013H31.8117V18.3013H30.9581V20.3013ZM32.8093 19.3708L34.1395 0.284329L32.1443 0.145281L30.8141 19.2318L32.8093 19.3708ZM34.1402 0.156346C34.1468 0.269195 34.1294 0.382222 34.089 0.48792L32.2208 -0.226192C32.1599 -0.0670034 32.1337 0.103248 32.1436 0.273264L34.1402 0.156346ZM34.089 0.48792C34.0486 0.593589 33.9862 0.689437 33.906 0.769126L32.4964 -0.649778C32.3756 -0.529731 32.2816 -0.385352 32.2208 -0.226192L34.089 0.48792ZM33.906 0.769126C33.8257 0.848822 33.7295 0.910567 33.6235 0.950253L32.9219 -0.922617C32.7623 -0.86284 32.6173 -0.769832 32.4964 -0.649778L33.906 0.769126ZM33.6235 0.950253C33.5176 0.989931 33.4045 1.00665 33.2916 0.999284L33.4218 -0.996474C33.2518 -1.00756 33.0814 -0.982387 32.9219 -0.922617L33.6235 0.950253ZM33.3567 1.00141H38.4982V-0.998595H33.3567V1.00141ZM38.5633 0.999284C38.4505 1.00665 38.3374 0.989937 38.2314 0.950253L38.9331 -0.922617C38.7736 -0.982392 38.6031 -1.00756 38.4332 -0.996474L38.5633 0.999284ZM38.2314 0.950253C38.1255 0.910547 38.0292 0.848782 37.949 0.769126L39.3585 -0.649778C39.2377 -0.769792 39.0927 -0.86282 38.9331 -0.922617L38.2314 0.950253ZM37.949 0.769126C37.8688 0.689437 37.8064 0.593589 37.766 0.48792L39.6342 -0.226192C39.5733 -0.385352 39.4794 -0.529731 39.3585 -0.649778L37.949 0.769126ZM37.766 0.48792C37.7256 0.382318 37.7082 0.269298 37.7148 0.156346L39.7114 0.273264C39.7213 0.103145 39.695 -0.0670994 39.6342 -0.226192L37.766 0.48792ZM37.7155 0.145398L35.3581 34.0276L37.3533 34.1664L39.7107 0.284212L37.7155 0.145398ZM35.3579 34.1626C35.3504 34.0493 35.3672 33.9356 35.4073 33.8292L37.2791 34.5336C37.3394 34.3734 37.3648 34.2022 37.3536 34.0315L35.3579 34.1626ZM35.4073 33.8292C35.4473 33.7228 35.5096 33.6263 35.5899 33.546L37.0041 34.9602C37.125 34.8393 37.2188 34.6939 37.2791 34.5336L35.4073 33.8292ZM35.5899 33.546C35.6701 33.4658 35.7667 33.4035 35.8731 33.3634L36.5775 35.2353C36.7377 35.175 36.8831 35.0812 37.0041 34.9602L35.5899 33.546ZM35.8731 33.3634C35.9795 33.3234 36.0932 33.3066 36.2064 33.314L36.0754 35.3097C36.246 35.3209 36.4172 35.2956 36.5775 35.2353L35.8731 33.3634ZM36.1409 33.3119H29.1499V35.3119H36.1409V33.3119ZM29.1499 33.3119C29.1574 33.3119 29.4078 33.3044 29.6481 33.5115C29.9202 33.7461 29.9365 34.0351 29.9365 34.097H27.9365C27.9365 34.3312 27.9955 34.7275 28.3423 35.0265C28.6573 35.2979 29.0143 35.3119 29.1499 35.3119V33.3119ZM29.9347 34.0368L29.1195 20.5215L27.1231 20.6419L27.9383 34.1572L29.9347 34.0368ZM28.1213 19.5817H27.2677V21.5817H28.1213V19.5817ZM26.2695 20.5215L25.4543 34.0368L27.4507 34.1572L28.2659 20.6419L26.2695 20.5215ZM25.4525 34.097C25.4525 34.0351 25.4688 33.7448 25.7426 33.51C25.983 33.3037 26.2329 33.3119 26.2377 33.3119V35.3119C26.3719 35.3119 26.7293 35.2986 27.0448 35.028C27.3935 34.7288 27.4525 34.3311 27.4525 34.097H25.4525ZM26.2377 33.3119H19.2424V35.3119H26.2377V33.3119ZM19.184 33.3136C19.2969 33.307 19.41 33.3244 19.5156 33.3648L18.8014 35.233C18.9605 35.2938 19.1308 35.3201 19.3009 35.3102L19.184 33.3136ZM19.5156 33.3648C19.6211 33.4052 19.717 33.4675 19.7968 33.5478L18.3779 34.9573C18.498 35.0782 18.6424 35.1722 18.8014 35.233L19.5156 33.3648ZM19.7968 33.5478C19.8765 33.628 19.9382 33.7243 19.9779 33.8302L18.105 34.5319C18.1648 34.6915 18.2578 34.8365 18.3779 34.9573L19.7968 33.5478ZM19.9779 33.8302C20.0176 33.9361 20.0343 34.0493 20.0269 34.1621L18.0312 34.0319C18.0201 34.2019 18.0452 34.3724 18.105 34.5319L19.9779 33.8302ZM20.0266 34.0276L17.6678 0.145356L15.6727 0.284254L18.0315 34.1665L20.0266 34.0276Z" fill="white" mask="url(#path-2-inside-1_5642_500)"/>
<path d="M45.902 19.7294V29.1646H51.2626C51.2913 29.1629 51.32 29.1673 51.3468 29.1776C51.3736 29.1878 51.3979 29.2035 51.4182 29.2238C51.4385 29.2441 51.4543 29.2685 51.4645 29.2953C51.4747 29.3221 51.4791 29.3507 51.4775 29.3794V34.097C51.4793 34.1257 51.4751 34.1544 51.465 34.1813C51.4548 34.2083 51.4391 34.2327 51.4187 34.253C51.3984 34.2734 51.3739 34.2891 51.347 34.2993C51.3201 34.3094 51.2913 34.3137 51.2626 34.3118H40.54C40.5114 34.3134 40.4828 34.309 40.4561 34.2988C40.4293 34.2886 40.405 34.2728 40.3849 34.2525C40.3647 34.2322 40.3491 34.2078 40.339 34.181C40.329 34.1542 40.3247 34.1255 40.3266 34.097V0.214717C40.3249 0.18626 40.3293 0.157776 40.3395 0.131136C40.3496 0.104496 40.3653 0.0803018 40.3854 0.0601461C40.4056 0.0399903 40.4298 0.0243292 40.4564 0.0141898C40.4831 0.00405053 40.5115 -0.000337024 40.54 0.00131689H50.8344C50.8629 -0.000337024 50.8914 0.00405053 50.918 0.0141898C50.9446 0.0243292 50.9688 0.0399903 50.989 0.0601461C51.0091 0.0803018 51.0248 0.104496 51.0349 0.131136C51.0451 0.157776 51.0495 0.18626 51.0478 0.214717V4.93371C51.0495 4.96216 51.0451 4.99065 51.0349 5.01729C51.0248 5.04393 51.0091 5.06812 50.989 5.08827C50.9688 5.10843 50.9446 5.12409 50.918 5.13423C50.8914 5.14437 50.8629 5.14876 50.8344 5.14711H45.902V14.5822H49.9766C50.0051 14.5808 50.0336 14.5854 50.0602 14.5957C50.0869 14.606 50.111 14.6218 50.1312 14.642C50.1513 14.6623 50.1669 14.6866 50.1771 14.7133C50.1872 14.74 50.1916 14.7685 50.19 14.7971V19.5146C50.1918 19.5432 50.1876 19.5718 50.1775 19.5986C50.1675 19.6255 50.1519 19.6498 50.1317 19.6701C50.1115 19.6905 50.0872 19.7062 50.0605 19.7165C50.0337 19.7267 50.0051 19.7311 49.9766 19.7294H45.902Z" fill="white"/>
<path d="M68.077 34.0976C68.077 34.2697 67.9916 34.3124 67.8636 34.3124H62.7164C62.5883 34.3124 62.5015 34.2697 62.5015 34.0976L62.0747 25.5203H59.0715L58.6447 34.0976C58.6447 34.2697 58.5593 34.3124 58.4299 34.3124H53.2812C53.1518 34.3124 53.0664 34.2697 53.0664 34.0976L54.9543 0.215353C54.9543 0.0446331 55.0396 0.00195312 55.1677 0.00195312H65.9799C66.1094 0.00195312 66.1948 0.0446331 66.1948 0.215353L68.077 34.0976ZM59.3717 20.3731H61.7731L61.0006 5.15059H60.147L59.3717 20.3731Z" fill="white"/>
<path d="M83.7999 34.3119H78.5673C78.5143 34.3048 78.4636 34.2855 78.4192 34.2557C78.3748 34.2258 78.3379 34.1861 78.3113 34.1397C77.7536 33.2861 77.7536 31.7809 77.7536 30.9672L77.8389 18.8745H75.2653V34.097C75.2672 34.1257 75.2629 34.1545 75.2528 34.1814C75.2427 34.2084 75.2269 34.2328 75.2066 34.2531C75.1862 34.2735 75.1618 34.2892 75.1349 34.2994C75.108 34.3095 75.0792 34.3137 75.0505 34.3119H69.9047C69.876 34.3137 69.8472 34.3095 69.8203 34.2994C69.7934 34.2892 69.769 34.2735 69.7486 34.2531C69.7283 34.2328 69.7125 34.2084 69.7024 34.1814C69.6923 34.1545 69.688 34.1257 69.6899 34.097V0.214805C69.6882 0.186221 69.6926 0.157609 69.7029 0.130864C69.7131 0.104119 69.7289 0.079853 69.7492 0.0596741C69.7695 0.0394952 69.7939 0.0238632 69.8207 0.0138177C69.8475 0.00377224 69.8761 -0.000458706 69.9047 0.001405H79.125C82.5565 0.001405 83.4144 2.57359 83.4144 6.86293V12.7812C83.4144 15.0973 82.0842 15.7845 81.3984 15.8698V16.7234C82.0415 16.8088 83.4144 17.4945 83.4144 19.8106V30.9629C83.4144 31.6913 83.4144 33.1922 83.9294 34.0501C83.95 34.0736 83.9632 34.1027 83.9673 34.1337C83.9714 34.1647 83.9662 34.1963 83.9523 34.2243C83.9384 34.2524 83.9165 34.2757 83.8894 34.2912C83.8623 34.3068 83.8311 34.314 83.7999 34.3119ZM77.8389 13.7259V5.14719H75.2653V13.7259H77.8389Z" fill="white"/>
</svg>
